<svg width="314" height="314" viewBox="0 0 314 314" fill="none" xmlns="http://www.w3.org/2000/svg">
<path d="M124.292 85.0417V124.292H85.0415V85.0417H124.292ZM143.917 65.4167H65.4165V143.917H143.917V65.4167ZM124.292 189.708V228.958H85.0415V189.708H124.292ZM143.917 170.083H65.4165V248.583H143.917V170.083ZM228.958 85.0417V124.292H189.708V85.0417H228.958ZM248.583 65.4167H170.083V143.917H248.583V65.4167ZM170.083 170.083H189.708V189.708H170.083V170.083ZM189.708 189.708H209.333V209.333H189.708V189.708ZM209.333 170.083H228.958V189.708H209.333V170.083ZM170.083 209.333H189.708V228.958H170.083V209.333ZM189.708 228.958H209.333V248.583H189.708V228.958ZM209.333 209.333H228.958V228.958H209.333V209.333ZM228.958 189.708H248.583V209.333H228.958V189.708ZM228.958 228.958H248.583V248.583H228.958V228.958ZM287.833 91.5833H261.667V52.3333H222.417V26.1667H287.833V91.5833ZM287.833 287.833V222.417H261.667V261.667H222.417V287.833H287.833ZM26.1665 287.833H91.5832V261.667H52.3332V222.417H26.1665V287.833ZM26.1665 26.1667V91.5833H52.3332V52.3333H91.5832V26.1667H26.1665Z" fill="white"/>
</svg>
